# xmcd
#
# Track frame offsets: 
#        150
#        17352
#        30577
#        44330
#        58150
#        71835
#        90010
#        107552
#        129375
#        144002
#        159930
#        191152
#
# Disc length: 2814 seconds
#
# Revision: 0
# Processed by: cddbd v1.5.2PL0 Copyright (c) Steve Scherf et al.
# Submitted via: ExactAudioCopy v0.95b3
#
DISCID=8f0afc0c
DTITLE=The 69 Eyes - Wrap Your Troubles In Dreams
DYEAR=1997
DGENRE=Gothic Rock
TTITLE0=Call Me
TTITLE1=D.I.D.
TTITLE2=Broken Man
TTITLE3=Get Around
TTITLE4=Too Much To Lose
TTITLE5=Sore Loser
TTITLE6=Skanky Man
TTITLE7=Wrap Your Troubles In Dreams
TTITLE8=Hellcity 1999
TTITLE9=Turbobitch
TTITLE10=L8R S8N
TTITLE11=Call Me (Video)
EXTD=
EXTT0=
EXTT1=
EXTT2=
EXTT3=
EXTT4=
EXTT5=
EXTT6=
EXTT7=
EXTT8=
EXTT9=
EXTT10=
EXTT11=
PLAYORDER=
